<svg width="196" height="38" viewBox="0 0 196 38" fill="none" xmlns="http://www.w3.org/2000/svg">
<g clip-path="url(#clip0_401_5)">
<path d="M99.357 4.25605C97.2107 4.25399 95.0996 4.79529 93.2236 5.82864C91.3476 6.86198 89.769 8.35311 88.6374 10.1607V4.26191H79.5971L78.237 4.25776C76.1786 4.25433 74.1505 4.75034 72.33 5.70249C70.5094 6.65464 68.9517 8.034 67.7928 9.72015V4.2664H60.0416V29.1946H67.7928V23.7402C68.9515 25.4267 70.5092 26.8064 72.3299 27.7588C74.1505 28.7112 76.1787 29.2074 78.2374 29.204L78.922 29.2019H88.6374V23.2987C89.7689 25.1063 91.3475 26.5976 93.2234 27.6311C95.0994 28.6645 97.2107 29.2059 99.357 29.204L100.041 29.2019H113.092V22.4535H99.9009L99.9149 22.4628C99.0057 22.4627 98.1095 22.2491 97.2997 21.8396C96.4898 21.4301 95.7894 20.8363 95.2557 20.1068H113.092V13.3574H95.272C95.8061 12.6338 96.5048 12.0453 97.3114 11.6395C98.1179 11.2338 99.0097 11.0222 99.9142 11.022L100.79 11.0086H113.092V4.26019H100.717L99.357 4.25605ZM78.7796 22.4535L78.7932 22.4628C77.2625 22.4628 75.7945 21.8601 74.7121 20.7874C73.6297 19.7146 73.0217 18.2596 73.0217 16.7424C73.0217 15.2253 73.6297 13.7703 74.7121 12.6975C75.7945 11.6247 77.2625 11.022 78.7932 11.022L79.6685 11.0086H88.1456C87.2194 12.7764 86.7361 14.7393 86.7364 16.7313C86.7368 18.7233 87.2209 20.686 88.1477 22.4535H78.7796Z" fill="#034EA2"/>
<path d="M186.667 4.6845L186.197 4.57136C182.28 3.65316 178.2 3.66036 174.286 4.5924L173.946 4.6745C170.934 5.46464 168.324 7.33104 166.618 9.91438V4.25711H152.883C150.078 4.25236 147.353 5.17563 145.138 6.88052C142.923 8.58541 141.346 10.9743 140.656 13.6685C139.967 10.9743 138.39 8.5851 136.176 6.87975C133.961 5.1744 131.236 4.25044 128.431 4.25435L127.072 4.25883H114.699V11.0096H127.001L127.876 11.02C129.407 11.0209 130.874 11.6242 131.956 12.6973C133.038 13.7704 133.646 15.2254 133.646 16.7424C133.626 18.2519 133.011 19.6937 131.933 20.7601C130.855 21.8265 129.399 22.433 127.876 22.4501H127.89H114.7V22.606H114.697V37.9983H122.447V29.1985H127.749L128.433 29.2022C131.238 29.2056 133.964 28.2809 136.179 26.5746C138.394 24.8683 139.971 22.4781 140.66 19.7829C141.348 22.4776 142.925 24.8674 145.139 26.5733C147.353 28.2793 150.079 29.2037 152.883 29.2002L153.568 29.1957H166.616V23.5557C168.323 26.1388 170.933 28.0051 173.944 28.7952L174.285 28.8773C178.199 29.8097 182.279 29.8165 186.195 28.8973L186.665 28.7842C189.342 28.0774 191.709 26.514 193.397 24.3369C195.085 22.1598 196 19.4909 196 16.7452V16.7273C196.001 13.9811 195.086 11.3116 193.398 9.13382C191.71 6.95601 189.344 5.39185 186.667 4.6845ZM165.975 22.4497H153.426L153.439 22.458C151.908 22.458 150.44 21.8554 149.358 20.7827C148.276 19.7099 147.668 18.255 147.668 16.738C147.668 15.2209 148.276 13.766 149.358 12.6933C150.44 11.6205 151.908 11.0179 153.439 11.0179L154.313 11.01H165.979C165.054 12.7757 164.571 14.7365 164.573 16.7262V16.7449C164.572 18.7301 165.052 20.6864 165.973 22.449L165.975 22.4497ZM188.594 16.7624C188.593 18.0123 188.18 19.2276 187.417 20.223C186.655 21.2183 185.584 21.9389 184.37 22.2748C184.108 22.3459 183.84 22.387 183.573 22.4346C181.407 22.8155 179.191 22.8163 177.025 22.437L176.187 22.2693C174.977 21.9306 173.911 21.2094 173.151 20.2154C172.392 19.2215 171.98 18.0089 171.98 16.7621V16.7435C171.98 15.4936 172.393 14.2783 173.156 13.2829C173.919 12.2876 174.989 11.5668 176.203 11.2307C176.465 11.1586 176.734 11.1183 177.001 11.0707C179.166 10.6894 181.382 10.6884 183.548 11.0679L184.387 11.2359C185.598 11.5751 186.663 12.2965 187.422 13.2905C188.181 14.2845 188.592 15.4969 188.593 16.7435L188.594 16.7624Z" fill="#034EA2"/>
<path d="M35.3665 0.000339014C31.9919 -0.00238381 28.6985 1.02592 25.9347 2.94522C23.4607 1.23325 20.5605 0.226273 17.5495 0.0337524C14.5384 -0.158769 11.5317 0.470542 8.85631 1.85327C6.18088 3.23599 3.93909 5.31921 2.37468 7.87644C0.810265 10.4337 -0.0169067 13.367 -0.0169067 16.3576C-0.0169067 19.3482 0.810265 22.2816 2.37468 24.8388C3.93909 27.396 6.18088 29.4793 8.85631 30.862C11.5317 32.2447 14.5384 32.874 17.5495 32.6815C20.5605 32.489 23.4607 31.482 25.9347 29.77C28.0597 31.2382 30.5037 32.1898 33.0687 32.5479C35.6337 32.9059 38.2477 32.6604 40.6992 31.8311C43.1507 31.0019 45.3708 29.6122 47.1797 27.7746C48.9887 25.9369 50.3357 23.703 51.1117 21.2535C51.8878 18.804 52.0711 16.2079 51.6468 13.6752C51.2224 11.1425 50.2025 8.74435 48.6693 6.67492C47.1362 4.6055 45.1331 2.92291 42.822 1.76334C40.5109 0.603778 37.9569 -0.000181188 35.3665 0.000339014Z" fill="white"/>
<path d="M50.9213 10.8799L26.0979 29.8928C28.9768 31.8268 32.3983 32.8104 35.8745 32.7031C39.3507 32.5959 42.7039 31.4033 45.4558 29.2955C48.2077 27.1877 50.2178 24.2724 51.1993 20.9655C52.1807 17.6585 52.0834 14.1288 50.9213 10.8799Z" fill="#ED1C24"/>
<path d="M25.9354 6.51658L28.3717 4.99395L36.3177 0.0265842C36.0045 0.00933639 35.6857 -0.000670784 35.3665 -0.000670784C34.3711 -0.00093797 33.3776 0.087623 32.3981 0.26392L27.7727 4.40718L25.9358 6.05262L20.2029 9.89233L1.24182 22.5922C1.50949 23.2361 1.81884 23.8621 2.16795 24.4664L19.6902 11.2335L25.9354 6.51658Z" fill="#ED1C24"/>
<path d="M16.5039 0.000200867C13.8614 0.001554 11.2579 0.631434 8.91205 1.83694C6.56618 3.04244 4.54646 4.78835 3.02257 6.928C1.49869 9.06764 0.515147 11.5385 0.154575 14.1331C-0.205996 16.7276 0.0669336 19.37 0.950437 21.8383L25.769 2.82056C23.0371 0.978273 19.8081 -0.00463545 16.5039 0.000200867Z" fill="#ED1C24"/>
<path d="M25.9354 13.2305L31.527 9.57739L43.196 1.95386C42.5071 1.58533 41.7926 1.2659 41.058 0.997986L31.1107 8.73845L25.9354 12.7658L18.8981 17.4396L4.16846 27.224C4.63508 27.7443 5.13497 28.2343 5.66502 28.691L19.007 18.5148L25.9354 13.2305Z" fill="#ED1C24"/>
<path d="M25.9354 16.5896L32.4861 12.2683L45.6646 3.57545C45.0954 3.12455 44.4969 2.71132 43.8729 2.33844L32.2042 11.3042L25.9354 16.1212L19.3829 20.4452L6.20618 29.1401C6.77517 29.5915 7.37384 30.0049 7.99822 30.3775L19.6655 21.4086L25.9354 16.5896Z" fill="#ED1C24"/>
<path d="M25.9354 19.9443L32.9734 15.2726L47.7041 5.49273C47.238 4.97274 46.7389 4.48272 46.2099 4.02563L32.8658 14.1949L25.9354 19.4752L20.3396 23.1324L8.67377 30.7604C9.36263 31.1298 10.0775 31.4495 10.8128 31.717L20.7573 23.9748L25.9354 19.9443Z" fill="#ED1C24"/>
<path d="M25.9354 9.87575L30.1519 7.1613L40.1781 0.707167C39.3249 0.449769 38.4519 0.26173 37.5679 0.144897L29.6413 6.45759L25.9368 9.4073L19.0321 14.0149L2.51459 25.0393C2.88409 25.6223 3.28987 26.1818 3.72959 26.7148L18.904 15.2088L25.9354 9.87575Z" fill="#ED1C24"/>
<path d="M25.9354 23.3039L32.8387 18.697L49.3565 7.67736C48.9876 7.09388 48.582 6.53405 48.1419 6.00122L32.9675 17.5034L25.9354 22.8364L21.7165 25.5537L11.693 32.0102C12.5463 32.2671 13.4193 32.4551 14.3033 32.5721L22.2302 26.2594L25.9354 23.3039Z" fill="#ED1C24"/>
<path d="M50.629 10.1255C50.3613 9.48139 50.0521 8.85503 49.7032 8.25031L32.1837 21.4728L25.9354 26.1891L23.4932 27.7165L15.5458 32.6877C15.8628 32.706 16.1823 32.716 16.5039 32.716C17.5052 32.7162 18.5044 32.6268 19.4894 32.4486L24.0984 28.3092L25.9354 26.6596L31.6696 22.8199L50.629 10.1255Z" fill="#ED1C24"/>
</g>
<defs>
<clipPath id="clip0_401_5">
<rect width="196" height="38" fill="white"/>
</clipPath>
</defs>
</svg>
