<svg width="203" height="203" viewBox="0 0 203 203" fill="none" xmlns="http://www.w3.org/2000/svg">
<g filter="url(#filter0_d_522_66)">
<path d="M101.797 192.214C154.106 192.214 196.511 149.809 196.511 97.4999C196.511 45.1906 154.106 2.78547 101.797 2.78547C49.4872 2.78547 7.08206 45.1906 7.08206 97.4999C7.08206 149.809 49.4872 192.214 101.797 192.214Z" fill="white"/>
<path d="M102.024 38.8711C99.8461 38.8717 97.6718 39.0463 95.5218 39.3933C74.6425 42.757 59.9693 60.0739 60.0298 81.2811C60.0569 90.8 61.8145 96.1833 67.4168 103.974C68.237 105.115 69.0059 106.292 69.812 107.443C72.3093 111.082 74.0308 115.197 74.8695 119.53C75.7482 124.028 76.2018 128.598 76.2244 133.18C76.2737 135.971 77.4832 137.3 80.2226 137.333C81.9087 137.355 82.552 137.995 82.8093 139.632C83.4951 144.18 85.7838 148.334 89.2625 151.343C92.7413 154.352 97.181 156.02 101.781 156.044H101.88C111.28 156.044 119.264 149.262 120.886 139.775C121.169 138.124 121.72 137.331 123.549 137.328C126.18 137.325 127.355 135.959 127.481 133.29C127.579 131.217 127.697 129.144 127.804 127.071C128.225 118.867 130.546 111.33 135.711 104.821C141.506 97.5165 143.882 89.2435 143.725 79.9201C143.337 57.0555 124.199 38.8699 102.024 38.8711ZM113.73 139.524C112.545 144.818 107.474 148.848 101.873 148.857H101.855C96.2411 148.857 91.1723 144.898 89.9846 139.58C89.5844 137.788 89.8509 137.417 91.7559 137.399C93.0977 137.386 94.4399 137.38 95.7823 137.382C97.7907 137.382 99.799 137.391 101.807 137.393C103.816 137.394 105.829 137.404 107.841 137.404C109.241 137.404 110.641 137.397 112.041 137.384H112.104C113.622 137.383 114.074 138 113.73 139.524ZM120.768 125.505C120.741 125.747 120.681 125.989 120.675 126.232C120.582 129.945 120.687 130.203 117.889 130.203C117.436 130.203 116.907 130.197 116.289 130.197H116.196C110.566 130.203 104.937 130.206 99.3072 130.205C94.8696 130.205 90.4319 130.204 85.9941 130.202C83.266 130.202 83.2043 130.131 83.0863 127.488C83.0811 127.367 83.0799 127.246 83.0734 127.122C82.8654 123.097 82.8654 123.097 87.0223 123.097H102.031V123.105C105.178 123.105 108.326 123.104 111.474 123.1C113.878 123.1 116.283 123.104 118.687 123.112C120.769 123.119 121.001 123.425 120.768 125.505ZM97.1021 81.7742C97.1554 80.5572 97.678 79.4081 98.5602 78.5681C99.4425 77.7282 100.616 77.2626 101.834 77.2692H101.915C103.148 77.2848 104.326 77.7806 105.199 78.6512C106.072 79.5218 106.571 80.6985 106.59 81.9313C106.562 83.1702 106.06 84.3514 105.189 85.2323C104.317 86.1133 103.141 86.6272 101.903 86.6685C101.862 86.6685 101.818 86.6685 101.776 86.6665C100.515 86.6148 99.323 86.0761 98.451 85.1637C97.579 84.2513 97.0947 83.0363 97.1001 81.7742H97.1021ZM135.606 90.0484C134.751 93.1183 133.32 95.9978 131.391 98.5338C127.732 103.532 124.259 108.621 122.676 114.732C122.423 115.709 121.781 116.105 120.802 116.105H120.793C118.425 116.099 116.057 116.096 113.689 116.096C111.535 116.096 109.382 116.099 107.23 116.103H107.222C105.892 116.103 105.424 115.428 105.441 114.148C105.484 110.91 105.455 107.672 105.454 104.434C105.454 101.44 105.511 98.4449 105.428 95.4536C105.387 93.9779 105.912 93.1682 107.258 92.48C111.925 90.0936 114.137 85.5854 113.533 80.1095C113.045 75.6865 109.624 71.8071 105.066 70.5071C104.025 70.2105 102.948 70.0601 101.866 70.0604C99.5522 70.0599 97.2877 70.7324 95.3489 71.996C93.4101 73.2596 91.8805 75.0597 90.9466 77.1771C88.5323 82.7677 90.6235 89.3275 96.023 92.2155C97.8622 93.1993 98.3092 94.347 98.2777 96.2476C98.1796 102.111 98.197 107.978 98.2697 113.842C98.2903 115.489 97.6958 116.131 96.1074 116.131H96.0367C93.9943 116.107 91.9521 116.096 89.9103 116.098C87.6756 116.098 85.4409 116.107 83.2063 116.126H83.1659C81.9882 116.126 81.2561 115.722 80.9241 114.511C79.4614 109.247 76.8911 104.356 73.3853 100.166C63.4158 88.1079 66.2209 69.8447 74.4491 59.4927C77.7276 55.3533 81.9 52.0091 86.654 49.7105C91.4079 47.4118 96.6202 46.2183 101.901 46.2192C109.465 46.2143 116.823 48.6886 122.847 53.2633C134.024 61.722 139.15 76.5144 135.604 90.0484H135.606Z" fill="#5965F5"/>
<path d="M191.358 59.6615C181.974 37.3772 164.645 19.3746 142.735 9.14868C120.824 -1.07725 95.8952 -2.79691 72.7879 4.32356C49.6807 11.444 30.0436 26.8966 17.6888 47.6813C5.33407 68.4661 1.14319 93.1001 5.92977 116.801C10.7164 140.502 24.1389 161.579 43.5916 175.94C63.0443 190.301 87.1392 196.921 111.199 194.516C135.258 192.111 157.566 180.852 173.791 162.924C190.015 144.996 199 121.679 199 97.4999C199.017 84.5022 196.418 71.634 191.358 59.6615ZM189.266 97.4999C189.266 145.731 150.027 184.97 101.797 184.97C53.5657 184.97 14.3268 145.731 14.3268 97.4999C14.3268 49.2691 53.5653 10.0302 101.797 10.0302C150.028 10.0302 189.266 49.2687 189.266 97.4999Z" fill="#5965F5"/>
</g>
<defs>
<filter id="filter0_d_522_66" x="0" y="0" width="203" height="203" filterUnits="userSpaceOnUse" color-interpolation-filters="sRGB">
<feFlood flood-opacity="0" result="BackgroundImageFix"/>
<feColorMatrix in="SourceAlpha" type="matrix" values="0 0 0 0 0 0 0 0 0 0 0 0 0 0 0 0 0 0 127 0" result="hardAlpha"/>
<feOffset dy="4"/>
<feGaussianBlur stdDeviation="2"/>
<feComposite in2="hardAlpha" operator="out"/>
<feColorMatrix type="matrix" values="0 0 0 0 0 0 0 0 0 0 0 0 0 0 0 0 0 0 0.25 0"/>
<feBlend mode="normal" in2="BackgroundImageFix" result="effect1_dropShadow_522_66"/>
<feBlend mode="normal" in="SourceGraphic" in2="effect1_dropShadow_522_66" result="shape"/>
</filter>
</defs>
</svg>
