<svg width="390" height="390" viewBox="0 0 390 390" fill="none" xmlns="http://www.w3.org/2000/svg">
<g clip-path="url(#clip0_484_310)">
<rect width="390" height="390" fill="white"/>
<path d="M321.105 390H68.814C30.8086 390 0 359.185 0 321.172V68.8283C0 30.815 30.8086 0 68.814 0H321.186C359.191 0 390 30.815 390 68.8283V321.253C389.919 359.185 359.111 390 321.105 390Z" fill="#5965F5"/>
<path d="M195.121 77.8868C190.755 77.8868 186.388 78.2103 182.102 78.9382C140.296 85.6512 110.943 120.348 111.024 162.81C111.105 181.898 114.582 192.655 125.822 208.264C127.439 210.529 128.976 212.874 130.593 215.22C135.606 222.499 139.003 230.749 140.701 239.403C142.48 248.38 143.369 257.601 143.45 266.74C143.531 272.321 145.957 274.99 151.456 275.07C154.852 275.151 156.146 276.365 156.631 279.681C159.461 298.526 175.553 312.437 194.636 312.518H194.798C213.639 312.518 229.569 298.93 232.884 279.923C233.45 276.607 234.582 275.071 238.221 274.99C243.477 274.99 245.822 272.24 246.065 266.902C246.226 262.777 246.469 258.571 246.712 254.446C247.52 238.028 252.21 222.903 262.561 209.882C274.205 195.243 278.895 178.662 278.571 159.979C277.763 114.282 239.515 77.8868 195.121 77.8868ZM218.491 279.438C216.146 290.033 205.957 298.121 194.717 298.121C183.477 298.121 173.288 290.195 170.943 279.519C170.135 275.96 170.701 275.151 174.501 275.151C177.17 275.151 179.838 275.151 182.588 275.151C186.631 275.151 190.593 275.151 194.636 275.151C198.679 275.151 202.722 275.151 206.685 275.151C209.515 275.151 212.264 275.151 215.094 275.151H215.256C218.329 275.151 219.218 276.445 218.491 279.438ZM232.642 251.373C232.561 251.858 232.48 252.343 232.48 252.829C232.318 260.27 232.48 260.755 226.9 260.755C226.011 260.755 224.96 260.755 223.666 260.755H223.504C212.264 260.755 200.943 260.755 189.704 260.755C180.809 260.755 171.914 260.755 163.019 260.755C157.52 260.755 157.439 260.593 157.197 255.336C157.197 255.093 157.197 254.851 157.197 254.608C156.792 246.52 156.792 246.52 165.121 246.52H195.202C201.509 246.52 207.817 246.52 214.124 246.52C218.976 246.52 223.747 246.52 228.598 246.52C232.642 246.601 233.046 247.248 232.642 251.373ZM185.256 163.861C185.499 158.766 189.623 154.803 194.717 154.803H194.879C199.973 154.884 204.178 159.009 204.259 164.104C204.178 169.28 200.054 173.405 194.879 173.567C194.798 173.567 194.717 173.567 194.636 173.567C189.299 173.405 185.175 169.038 185.256 163.861ZM262.318 180.361C260.62 186.508 257.709 192.25 253.908 197.346C246.55 207.375 239.596 217.565 236.442 229.778C235.957 231.719 234.663 232.528 232.722 232.528C227.951 232.528 223.261 232.528 218.491 232.528C214.205 232.528 209.838 232.528 205.553 232.528C202.884 232.528 201.914 231.153 201.995 228.646C202.075 222.175 201.995 215.705 201.995 209.154C201.995 203.169 202.075 197.184 201.914 191.199C201.833 188.206 202.884 186.589 205.553 185.214C214.933 180.442 219.299 171.383 218.086 160.465C217.116 151.568 210.243 143.803 201.105 141.215C199.003 140.649 196.9 140.326 194.717 140.326C185.256 140.326 176.685 145.906 172.884 154.56C168.032 165.722 172.237 178.905 183.073 184.647C186.792 186.589 187.682 188.934 187.601 192.735C187.439 204.463 187.439 216.19 187.601 227.999C187.682 231.315 186.469 232.609 183.235 232.609H183.073C178.949 232.528 174.906 232.528 170.782 232.528C166.334 232.528 161.806 232.528 157.358 232.609H157.278C154.933 232.609 153.477 231.8 152.749 229.374C149.838 218.859 144.663 209.073 137.628 200.662C117.655 176.479 123.315 139.921 139.73 119.216C152.992 102.393 173.288 92.6068 194.717 92.6068C209.838 92.6068 224.555 97.5405 236.685 106.68C259.164 123.664 269.434 153.266 262.318 180.361Z" fill="white"/>
</g>
<defs>
<clipPath id="clip0_484_310">
<rect width="390" height="390" fill="white"/>
</clipPath>
</defs>
</svg>
