<svg width="390" height="844" viewBox="0 0 390 844" fill="none" xmlns="http://www.w3.org/2000/svg">
<rect width="390" height="844" fill="#5965F4"/>
<g clip-path="url(#clip0_413_687)">
<path d="M196.357 776.256C194.211 776.254 192.1 776.795 190.224 777.828C188.348 778.862 186.769 780.353 185.637 782.16V776.262H176.597L175.237 776.258C173.179 776.254 171.151 776.75 169.33 777.702C167.509 778.654 165.952 780.034 164.793 781.72V776.266H157.042V801.194H164.793V795.74C165.952 797.427 167.509 798.806 169.33 799.759C171.151 800.711 173.179 801.207 175.237 801.204L175.922 801.202H185.637V795.298C186.769 797.106 188.347 798.597 190.223 799.631C192.099 800.664 194.211 801.206 196.357 801.204L197.041 801.202H210.092V794.453H196.901L196.915 794.463C196.006 794.463 195.11 794.249 194.3 793.839C193.49 793.43 192.789 792.836 192.256 792.107H210.092V785.357H192.272C192.806 784.634 193.505 784.045 194.311 783.639C195.118 783.234 196.01 783.022 196.914 783.022L197.79 783.008H210.092V776.26H197.717L196.357 776.256ZM175.78 794.453L175.793 794.463C174.262 794.463 172.794 793.86 171.712 792.787C170.63 791.714 170.022 790.259 170.022 788.742C170.022 787.225 170.63 785.77 171.712 784.697C172.794 783.625 174.262 783.022 175.793 783.022L176.668 783.008H185.146C184.219 784.776 183.736 786.739 183.736 788.731C183.737 790.723 184.221 792.686 185.148 794.453H175.78Z" fill="white"/>
<path d="M283.667 776.685L283.197 776.572C279.28 775.653 275.2 775.661 271.286 776.593L270.946 776.675C267.934 777.465 265.324 779.331 263.618 781.915V776.257H249.883C247.078 776.253 244.353 777.176 242.138 778.881C239.923 780.586 238.346 782.975 237.656 785.669C236.967 782.974 235.39 780.585 233.176 778.88C230.961 777.175 228.236 776.251 225.431 776.255L224.072 776.259H211.699V783.01H224.001L224.876 783.02C226.407 783.021 227.874 783.624 228.956 784.697C230.038 785.771 230.646 787.226 230.646 788.743C230.626 790.252 230.011 791.694 228.933 792.76C227.855 793.827 226.399 794.433 224.876 794.45H224.89H211.7V794.606H211.697V809.998H219.447V801.199H224.749L225.433 801.202C228.238 801.206 230.964 800.281 233.179 798.575C235.394 796.868 236.971 794.478 237.66 791.783C238.348 794.478 239.925 796.868 242.139 798.573C244.353 800.279 247.079 801.204 249.883 801.2L250.568 801.196H263.616V795.556C265.323 798.139 267.933 800.005 270.944 800.795L271.285 800.877C275.199 801.81 279.279 801.817 283.195 800.897L283.665 800.784C286.342 800.078 288.709 798.514 290.397 796.337C292.085 794.16 293 791.491 293 788.745V788.727C293.001 785.981 292.086 783.312 290.398 781.134C288.71 778.956 286.344 777.392 283.667 776.685ZM262.975 794.45H250.426L250.439 794.458C248.908 794.458 247.44 793.856 246.358 792.783C245.276 791.71 244.668 790.255 244.668 788.738C244.668 787.221 245.276 785.766 246.358 784.693C247.44 783.621 248.908 783.018 250.439 783.018L251.313 783.01H262.979C262.054 784.776 261.571 786.737 261.573 788.726V788.745C261.572 790.73 262.052 792.687 262.973 794.449L262.975 794.45ZM285.594 788.763C285.593 790.013 285.18 791.228 284.417 792.223C283.655 793.218 282.584 793.939 281.37 794.275C281.108 794.346 280.84 794.387 280.573 794.435C278.407 794.816 276.191 794.816 274.025 794.437L273.187 794.27C271.977 793.931 270.911 793.21 270.151 792.216C269.392 791.222 268.98 790.009 268.98 788.762V788.744C268.98 787.494 269.393 786.278 270.156 785.283C270.919 784.288 271.989 783.567 273.203 783.231C273.465 783.159 273.734 783.118 274.001 783.071C276.166 782.69 278.382 782.689 280.548 783.068L281.387 783.236C282.598 783.575 283.663 784.297 284.422 785.291C285.181 786.285 285.592 787.497 285.593 788.744L285.594 788.763Z" fill="white"/>
<path d="M132.367 772.001C128.992 771.998 125.698 773.026 122.935 774.945C120.461 773.233 117.561 772.226 114.549 772.034C111.538 771.841 108.532 772.471 105.856 773.853C103.181 775.236 100.939 777.319 99.3747 779.877C97.8103 782.434 96.9831 785.367 96.9831 788.358C96.9831 791.348 97.8103 794.282 99.3747 796.839C100.939 799.396 103.181 801.479 105.856 802.862C108.532 804.245 111.538 804.874 114.549 804.682C117.561 804.489 120.461 803.482 122.935 801.77C125.06 803.238 127.504 804.19 130.069 804.548C132.634 804.906 135.248 804.661 137.699 803.831C140.151 803.002 142.371 801.612 144.18 799.775C145.989 797.937 147.336 795.703 148.112 793.254C148.888 790.804 149.071 788.208 148.647 785.675C148.222 783.143 147.202 780.745 145.669 778.675C144.136 776.606 142.133 774.923 139.822 773.764C137.511 772.604 134.957 772 132.367 772.001Z" fill="#5965F4"/>
<path d="M147.921 782.88L123.098 801.893C125.977 803.827 129.398 804.81 132.875 804.703C136.351 804.596 139.704 803.403 142.456 801.295C145.208 799.188 147.218 796.272 148.199 792.965C149.181 789.659 149.083 786.129 147.921 782.88Z" fill="white"/>
<path d="M122.935 778.517L125.372 776.994L133.318 772.027C133.004 772.01 132.686 772 132.367 772C131.371 771.999 130.378 772.088 129.398 772.264L124.773 776.407L122.936 778.053L117.203 781.893L98.2418 794.592C98.5095 795.236 98.8188 795.862 99.1679 796.467L116.69 783.234L122.935 778.517Z" fill="white"/>
<path d="M113.504 772C110.861 772.001 108.258 772.631 105.912 773.837C103.566 775.042 101.546 776.788 100.023 778.928C98.4987 781.067 97.5151 783.538 97.1546 786.133C96.794 788.727 97.0669 791.37 97.9504 793.838L122.769 774.82C120.037 772.978 116.808 771.995 113.504 772Z" fill="white"/>
<path d="M122.935 785.231L128.527 781.577L140.196 773.954C139.507 773.585 138.793 773.266 138.058 772.998L128.111 780.739L122.935 784.766L115.898 789.44L101.168 799.224C101.635 799.744 102.135 800.234 102.665 800.691L116.007 790.515L122.935 785.231Z" fill="white"/>
<path d="M122.935 788.59L129.486 784.268L142.665 775.575C142.095 775.124 141.497 774.711 140.873 774.338L129.204 783.304L122.935 788.121L116.383 792.445L103.206 801.14C103.775 801.591 104.374 802.005 104.998 802.377L116.665 793.409L122.935 788.59Z" fill="white"/>
<path d="M122.935 791.945L129.973 787.273L144.704 777.493C144.238 776.973 143.739 776.483 143.21 776.026L129.866 786.195L122.935 791.475L117.34 795.133L105.674 802.761C106.363 803.13 107.078 803.45 107.813 803.717L117.757 795.975L122.935 791.945Z" fill="white"/>
<path d="M122.935 781.876L127.152 779.161L137.178 772.707C136.325 772.45 135.452 772.262 134.568 772.145L126.641 778.458L122.937 781.407L116.032 786.015L99.5146 797.039C99.8841 797.622 100.29 798.182 100.73 798.715L115.904 787.209L122.935 781.876Z" fill="white"/>
<path d="M122.935 795.304L129.839 790.697L146.357 779.677C145.988 779.094 145.582 778.534 145.142 778.001L129.967 789.503L122.935 794.836L118.716 797.553L108.693 804.01C109.546 804.267 110.419 804.455 111.303 804.572L119.23 798.259L122.935 795.304Z" fill="white"/>
<path d="M147.629 782.126C147.361 781.482 147.052 780.855 146.703 780.25L129.184 793.473L122.935 798.189L120.493 799.717L112.546 804.688C112.863 804.706 113.182 804.716 113.504 804.716C114.505 804.716 115.504 804.627 116.489 804.449L121.098 800.309L122.935 798.66L128.67 794.82L147.629 782.126Z" fill="white"/>
</g>
<path d="M195.797 419.214C248.106 419.214 290.511 376.809 290.511 324.5C290.511 272.191 248.106 229.785 195.797 229.785C143.487 229.785 101.082 272.191 101.082 324.5C101.082 376.809 143.487 419.214 195.797 419.214Z" fill="#5965F4"/>
<path d="M196.024 265.871C193.846 265.872 191.672 266.046 189.522 266.393C168.643 269.757 153.969 287.074 154.03 308.281C154.057 317.8 155.814 323.183 161.417 330.974C162.237 332.115 163.006 333.292 163.812 334.443C166.309 338.082 168.031 342.197 168.869 346.53C169.748 351.028 170.202 355.598 170.224 360.18C170.274 362.971 171.483 364.3 174.223 364.333C175.909 364.355 176.552 364.995 176.809 366.632C177.495 371.18 179.784 375.334 183.263 378.343C186.741 381.352 191.181 383.02 195.781 383.044H195.88C205.28 383.044 213.264 376.262 214.886 366.775C215.169 365.124 215.72 364.331 217.549 364.328C220.18 364.325 221.355 362.959 221.481 360.29C221.579 358.217 221.697 356.144 221.804 354.071C222.225 345.867 224.546 338.33 229.711 331.821C235.506 324.516 237.882 316.244 237.725 306.92C237.337 284.055 218.199 265.87 196.024 265.871ZM207.73 366.524C206.545 371.818 201.474 375.848 195.873 375.857H195.855C190.241 375.857 185.172 371.898 183.985 366.58C183.584 364.788 183.851 364.417 185.756 364.399C187.098 364.386 188.44 364.38 189.782 364.382C191.791 364.382 193.799 364.391 195.807 364.393C197.816 364.394 199.829 364.404 201.841 364.404C203.241 364.404 204.641 364.397 206.041 364.384H206.104C207.622 364.383 208.074 365 207.73 366.524ZM214.768 352.505C214.741 352.747 214.681 352.989 214.675 353.232C214.582 356.945 214.687 357.203 211.889 357.203C211.436 357.203 210.907 357.197 210.289 357.197H210.196C204.566 357.203 198.937 357.206 193.307 357.205C188.87 357.205 184.432 357.204 179.994 357.202C177.266 357.202 177.204 357.131 177.086 354.488C177.081 354.367 177.08 354.246 177.073 354.122C176.865 350.097 176.865 350.097 181.022 350.097H196.031V350.105C199.178 350.105 202.326 350.104 205.474 350.1C207.878 350.1 210.283 350.104 212.687 350.112C214.769 350.119 215.001 350.425 214.768 352.505ZM191.102 308.774C191.155 307.557 191.678 306.408 192.56 305.568C193.443 304.728 194.616 304.263 195.834 304.269H195.915C197.148 304.285 198.326 304.781 199.199 305.651C200.072 306.522 200.571 307.699 200.59 308.931C200.562 310.17 200.06 311.351 199.189 312.232C198.317 313.113 197.141 313.627 195.903 313.669C195.862 313.669 195.818 313.669 195.776 313.667C194.515 313.615 193.323 313.076 192.451 312.164C191.579 311.251 191.095 310.036 191.1 308.774H191.102ZM229.606 317.048C228.751 320.118 227.32 322.998 225.391 325.534C221.732 330.532 218.259 335.621 216.676 341.732C216.423 342.709 215.781 343.105 214.802 343.105H214.793C212.425 343.099 210.057 343.096 207.689 343.096C205.535 343.096 203.382 343.099 201.23 343.103H201.222C199.892 343.103 199.424 342.428 199.441 341.148C199.484 337.91 199.455 334.672 199.454 331.434C199.454 328.44 199.511 325.445 199.428 322.454C199.387 320.978 199.912 320.168 201.258 319.48C205.925 317.094 208.137 312.585 207.533 307.11C207.045 302.687 203.624 298.807 199.066 297.507C198.025 297.21 196.948 297.06 195.866 297.06C193.552 297.06 191.288 297.732 189.349 298.996C187.41 300.26 185.881 302.06 184.947 304.177C182.532 309.768 184.623 316.328 190.023 319.215C191.862 320.199 192.309 321.347 192.278 323.248C192.18 329.111 192.197 334.978 192.27 340.842C192.29 342.489 191.696 343.131 190.107 343.131H190.037C187.994 343.107 185.952 343.096 183.91 343.098C181.676 343.098 179.441 343.107 177.206 343.126H177.166C175.988 343.126 175.256 342.722 174.924 341.511C173.461 336.247 170.891 331.356 167.385 327.166C157.416 315.108 160.221 296.845 168.449 286.493C171.728 282.353 175.9 279.009 180.654 276.71C185.408 274.412 190.62 273.218 195.901 273.219C203.465 273.214 210.823 275.689 216.847 280.263C228.024 288.722 233.15 303.514 229.604 317.048H229.606Z" fill="white"/>
<path d="M285.358 286.662C275.974 264.377 258.645 246.375 236.735 236.149C214.824 225.923 189.895 224.203 166.788 231.324C143.681 238.444 124.044 253.897 111.689 274.681C99.3341 295.466 95.1432 320.1 99.9298 343.801C104.716 367.502 118.139 388.579 137.592 402.94C157.044 417.301 181.139 423.921 205.199 421.516C229.258 419.111 251.566 407.852 267.791 389.924C284.015 371.996 293 348.679 293 324.5C293.017 311.502 290.418 298.634 285.358 286.662ZM283.266 324.5C283.266 372.731 244.027 411.97 195.797 411.97C147.566 411.97 108.327 372.731 108.327 324.5C108.327 276.269 147.565 237.03 195.797 237.03C244.028 237.03 283.266 276.269 283.266 324.5Z" fill="white"/>
<defs>
<clipPath id="clip0_413_687">
<rect width="196" height="38" fill="white" transform="translate(97 772)"/>
</clipPath>
</defs>
</svg>
