<svg width="195" height="195" viewBox="0 0 195 195" fill="none" xmlns="http://www.w3.org/2000/svg">
<path d="M97.7965 192.214C150.106 192.214 192.511 149.809 192.511 97.4999C192.511 45.1906 150.106 2.78547 97.7965 2.78547C45.4872 2.78547 3.08206 45.1906 3.08206 97.4999C3.08206 149.809 45.4872 192.214 97.7965 192.214Z" fill="#5965F4"/>
<path d="M98.0239 38.8711C95.8461 38.8717 93.6718 39.0463 91.5218 39.3933C70.6425 42.757 55.9693 60.0739 56.0298 81.2811C56.0569 90.8 57.8145 96.1834 63.4168 103.974C64.237 105.115 65.0059 106.292 65.812 107.443C68.3093 111.082 70.0308 115.197 70.8695 119.53C71.7482 124.028 72.2018 128.598 72.2244 133.18C72.2737 135.971 73.4832 137.3 76.2226 137.333C77.9087 137.355 78.552 137.995 78.8093 139.632C79.4951 144.18 81.7838 148.334 85.2625 151.343C88.7413 154.352 93.181 156.02 97.7808 156.044H97.8801C107.28 156.044 115.264 149.262 116.886 139.775C117.169 138.124 117.72 137.331 119.549 137.328C122.18 137.325 123.355 135.959 123.481 133.29C123.579 131.217 123.697 129.144 123.804 127.071C124.225 118.867 126.546 111.33 131.711 104.821C137.506 97.5165 139.882 89.2435 139.725 79.9201C139.337 57.0555 120.199 38.8699 98.0239 38.8711ZM109.73 139.524C108.545 144.818 103.474 148.848 97.8728 148.857H97.8547C92.2411 148.857 87.1723 144.898 85.9846 139.58C85.5844 137.788 85.8509 137.417 87.7559 137.399C89.0977 137.386 90.4399 137.38 91.7823 137.382C93.7907 137.382 95.799 137.391 97.8074 137.393C99.8158 137.394 101.829 137.404 103.841 137.404C105.241 137.404 106.641 137.397 108.041 137.384H108.104C109.622 137.383 110.074 138 109.73 139.524ZM116.768 125.505C116.741 125.747 116.681 125.989 116.675 126.232C116.582 129.945 116.687 130.203 113.889 130.203C113.436 130.203 112.907 130.197 112.289 130.197H112.196C106.566 130.203 100.937 130.206 95.3072 130.205C90.8696 130.205 86.4319 130.204 81.9941 130.202C79.266 130.202 79.2043 130.131 79.0863 127.488C79.0811 127.367 79.0799 127.246 79.0734 127.122C78.8654 123.097 78.8654 123.097 83.0223 123.097H98.0308V123.105C101.178 123.105 104.326 123.104 107.474 123.1C109.878 123.1 112.283 123.104 114.687 123.112C116.769 123.119 117.001 123.425 116.768 125.505ZM93.1021 81.7742C93.1554 80.5572 93.678 79.4081 94.5602 78.5681C95.4425 77.7282 96.6159 77.2626 97.8341 77.2692H97.9148C99.1477 77.2848 100.326 77.7806 101.199 78.6512C102.072 79.5218 102.571 80.6985 102.59 81.9313C102.562 83.1702 102.06 84.3514 101.189 85.2323C100.317 86.1133 99.1413 86.6272 97.9027 86.6685C97.8623 86.6685 97.8179 86.6685 97.7759 86.6665C96.5149 86.6148 95.323 86.0761 94.451 85.1637C93.579 84.2513 93.0947 83.0363 93.1001 81.7742H93.1021ZM131.606 90.0484C130.751 93.1183 129.32 95.9978 127.391 98.5338C123.732 103.532 120.259 108.621 118.676 114.732C118.423 115.709 117.781 116.105 116.802 116.105H116.793C114.425 116.099 112.057 116.096 109.689 116.096C107.535 116.096 105.382 116.099 103.23 116.103H103.222C101.892 116.103 101.424 115.428 101.441 114.148C101.484 110.91 101.455 107.672 101.454 104.434C101.454 101.44 101.511 98.4449 101.428 95.4536C101.387 93.9779 101.912 93.1682 103.258 92.48C107.925 90.0936 110.137 85.5854 109.533 80.1095C109.045 75.6865 105.624 71.8071 101.066 70.5071C100.025 70.2105 98.9484 70.0601 97.8664 70.0604C95.5522 70.0599 93.2877 70.7324 91.3489 71.996C89.4101 73.2596 87.8805 75.0597 86.9466 77.1771C84.5323 82.7677 86.6235 89.3275 92.023 92.2155C93.8622 93.1993 94.3092 94.347 94.2777 96.2476C94.1796 102.111 94.197 107.978 94.2697 113.842C94.2902 115.489 93.6958 116.131 92.1074 116.131H92.0367C89.9943 116.107 87.9521 116.096 85.9103 116.098C83.6756 116.098 81.4409 116.107 79.2063 116.126H79.1659C77.9882 116.126 77.256 115.722 76.9241 114.511C75.4614 109.247 72.8911 104.356 69.3853 100.166C59.4158 88.1079 62.2209 69.8447 70.4491 59.4927C73.7276 55.3533 77.9 52.0091 82.654 49.7105C87.4079 47.4118 92.6202 46.2183 97.9007 46.2192C105.465 46.2143 112.823 48.6886 118.847 53.2633C130.024 61.722 135.15 76.5144 131.604 90.0484H131.606Z" fill="white"/>
<path d="M187.358 59.6615C177.974 37.3772 160.645 19.3746 138.735 9.14868C116.824 -1.07725 91.8952 -2.79691 68.7879 4.32356C45.6807 11.444 26.0436 26.8966 13.6888 47.6813C1.33407 68.4661 -2.85681 93.1001 1.92977 116.801C6.71636 140.502 20.1389 161.579 39.5916 175.94C59.0443 190.301 83.1392 196.921 107.199 194.516C131.258 192.111 153.566 180.852 169.791 162.924C186.015 144.996 195 121.679 195 97.4999C195.017 84.5022 192.418 71.634 187.358 59.6615ZM185.266 97.4999C185.266 145.731 146.027 184.97 97.7965 184.97C49.5657 184.97 10.3268 145.731 10.3268 97.4999C10.3268 49.2692 49.5653 10.0302 97.7965 10.0302C146.028 10.0302 185.266 49.2687 185.266 97.4999Z" fill="white"/>
</svg>
