<svg width="196" height="38" viewBox="0 0 196 38" fill="none" xmlns="http://www.w3.org/2000/svg">
<g clip-path="url(#clip0_413_720)">
<path d="M99.357 4.25587C97.2107 4.25381 95.0996 4.79511 93.2236 5.82845C91.3476 6.8618 89.769 8.35292 88.6374 10.1605V4.26173H79.5971L78.237 4.25758C76.1786 4.25414 74.1505 4.75015 72.33 5.70231C70.5094 6.65446 68.9517 8.03382 67.7928 9.71997V4.26621H60.0416V29.1945H67.7928V23.74C68.9515 25.4265 70.5092 26.8062 72.3299 27.7586C74.1505 28.711 76.1787 29.2072 78.2374 29.2038L78.922 29.2017H88.6374V23.2985C89.7689 25.1061 91.3475 26.5974 93.2234 27.6309C95.0994 28.6643 97.2107 29.2058 99.357 29.2038L100.041 29.2017H113.092V22.4533H99.9009L99.9149 22.4626C99.0057 22.4625 98.1095 22.2489 97.2997 21.8394C96.4898 21.4299 95.7894 20.8361 95.2557 20.1066H113.092V13.3572H95.272C95.8061 12.6337 96.5048 12.0451 97.3114 11.6394C98.1179 11.2336 99.0097 11.022 99.9142 11.0218L100.79 11.0084H113.092V4.26H100.717L99.357 4.25587ZM78.7796 22.4533L78.7932 22.4626C77.2625 22.4626 75.7945 21.86 74.7121 20.7872C73.6297 19.7144 73.0217 18.2594 73.0217 16.7422C73.0217 15.2251 73.6297 13.7701 74.7121 12.6973C75.7945 11.6245 77.2625 11.0218 78.7932 11.0218L79.6685 11.0084H88.1456C87.2194 12.7762 86.7361 14.7391 86.7364 16.7311C86.7368 18.7231 87.2209 20.6858 88.1477 22.4533H78.7796Z" fill="white"/>
<path d="M186.667 4.68468L186.197 4.57155C182.28 3.65334 178.2 3.66054 174.286 4.59258L173.946 4.67468C170.934 5.46482 168.324 7.33123 166.618 9.91456V4.25729H152.883C150.078 4.25254 147.353 5.17581 145.138 6.8807C142.923 8.5856 141.346 10.9745 140.656 13.6687C139.967 10.9745 138.39 8.58529 136.176 6.87994C133.961 5.17458 131.236 4.25063 128.431 4.25453L127.072 4.25902H114.699V11.0098H127.001L127.876 11.0202C129.407 11.0211 130.874 11.6244 131.956 12.6975C133.038 13.7706 133.646 15.2256 133.646 16.7426C133.626 18.252 133.011 19.6939 131.933 20.7603C130.855 21.8267 129.399 22.4332 127.876 22.4503H127.89H114.7V22.6062H114.697V37.9985H122.447V29.1986H127.749L128.433 29.2024C131.238 29.2058 133.964 28.2811 136.179 26.5748C138.394 24.8685 139.971 22.4783 140.66 19.7831C141.348 22.4778 142.925 24.8675 145.139 26.5735C147.353 28.2794 150.079 29.2039 152.883 29.2004L153.568 29.1959H166.616V23.5559C168.323 26.139 170.933 28.0052 173.944 28.7954L174.285 28.8775C178.199 29.8099 182.279 29.8167 186.195 28.8975L186.665 28.7843C189.342 28.0776 191.709 26.5141 193.397 24.337C195.085 22.1599 196 19.4911 196 16.7454V16.7274C196.001 13.9813 195.086 11.3118 193.398 9.134C191.71 6.95619 189.344 5.39204 186.667 4.68468ZM165.975 22.4499H153.426L153.439 22.4582C151.908 22.4582 150.44 21.8556 149.358 20.7828C148.276 19.7101 147.668 18.2552 147.668 16.7381C147.668 15.2211 148.276 13.7662 149.358 12.6934C150.44 11.6207 151.908 11.0181 153.439 11.0181L154.313 11.0101H165.979C165.054 12.7758 164.571 14.7367 164.573 16.7264V16.745C164.572 18.7302 165.052 20.6866 165.973 22.4492L165.975 22.4499ZM188.594 16.7626C188.593 18.0125 188.18 19.2278 187.417 20.2231C186.655 21.2184 185.584 21.9391 184.37 22.275C184.108 22.3461 183.84 22.3871 183.573 22.4347C181.407 22.8157 179.191 22.8165 177.025 22.4372L176.187 22.2695C174.977 21.9308 173.911 21.2096 173.151 20.2156C172.392 19.2216 171.98 18.0091 171.98 16.7623V16.7437C171.98 15.4938 172.393 14.2785 173.156 13.2831C173.919 12.2878 174.989 11.567 176.203 11.2309C176.465 11.1588 176.734 11.1185 177.001 11.0709C179.166 10.6895 181.382 10.6886 183.548 11.0681L184.387 11.2361C185.598 11.5753 186.663 12.2967 187.422 13.2907C188.181 14.2847 188.592 15.4971 188.593 16.7437L188.594 16.7626Z" fill="white"/>
<path d="M35.3665 0.00052212C31.9919 -0.0022007 28.6985 1.02611 25.9347 2.94541C23.4607 1.23344 20.5605 0.226457 17.5495 0.0339355C14.5384 -0.158586 11.5317 0.470725 8.85631 1.85345C6.18088 3.23617 3.93909 5.31939 2.37468 7.87662C0.810265 10.4338 -0.0169067 13.3672 -0.0169067 16.3578C-0.0169067 19.3484 0.810265 22.2818 2.37468 24.839C3.93909 27.3962 6.18088 29.4795 8.85631 30.8622C11.5317 32.2449 14.5384 32.8742 17.5495 32.6817C20.5605 32.4892 23.4607 31.4822 25.9347 29.7702C28.0597 31.2383 30.5037 32.19 33.0687 32.548C35.6337 32.9061 38.2477 32.6606 40.6992 31.8313C43.1507 31.0021 45.3708 29.6124 47.1797 27.7747C48.9887 25.9371 50.3357 23.7032 51.1117 21.2537C51.8878 18.8042 52.0711 16.2081 51.6468 13.6754C51.2224 11.1426 50.2025 8.74453 48.6693 6.67511C47.1362 4.60568 45.1331 2.92309 42.822 1.76353C40.5109 0.603961 37.9569 1.91719e-06 35.3665 0.00052212Z" fill="#5965F4"/>
<path d="M50.9213 10.8799L26.0979 29.8928C28.9768 31.8268 32.3983 32.8104 35.8745 32.7031C39.3507 32.5959 42.7039 31.4033 45.4558 29.2955C48.2077 27.1877 50.2178 24.2724 51.1993 20.9655C52.1807 17.6585 52.0834 14.1288 50.9213 10.8799Z" fill="white"/>
<path d="M25.9354 6.51677L28.3717 4.99413L36.3177 0.0267673C36.0045 0.0095195 35.6857 -0.000487678 35.3665 -0.000487678C34.3711 -0.000754864 33.3776 0.0878061 32.3981 0.264103L27.7727 4.40736L25.9358 6.0528L20.2029 9.89251L1.24182 22.5924C1.50949 23.2362 1.81884 23.8623 2.16795 24.4665L19.6902 11.2337L25.9354 6.51677Z" fill="white"/>
<path d="M16.5039 1.7762e-05C13.8614 0.0013709 11.2579 0.631251 8.91205 1.83675C6.56618 3.04226 4.54646 4.78817 3.02257 6.92781C1.49869 9.06745 0.515147 11.5383 0.154575 14.1329C-0.205996 16.7274 0.0669336 19.3698 0.950437 21.8381L25.769 2.82038C23.0371 0.97809 19.8081 -0.00481855 16.5039 1.7762e-05Z" fill="white"/>
<path d="M25.9354 13.2305L31.527 9.57745L43.196 1.95392C42.5071 1.58539 41.7926 1.26596 41.058 0.998047L31.1107 8.73851L25.9354 12.7659L18.8981 17.4397L4.16846 27.224C4.63508 27.7443 5.13497 28.2344 5.66502 28.6911L19.007 18.5149L25.9354 13.2305Z" fill="white"/>
<path d="M25.9354 16.5896L32.4861 12.2683L45.6646 3.57539C45.0954 3.12449 44.4969 2.71126 43.8729 2.33838L32.2042 11.3041L25.9354 16.1211L19.3829 20.4451L6.20618 29.1401C6.77517 29.5915 7.37384 30.0048 7.99822 30.3774L19.6655 21.4086L25.9354 16.5896Z" fill="white"/>
<path d="M25.9354 19.9446L32.9734 15.2728L47.7041 5.49297C47.238 4.97299 46.7389 4.48296 46.2099 4.02588L32.8658 14.1952L25.9354 19.4754L20.3396 23.1326L8.67377 30.7606C9.36263 31.1301 10.0775 31.4498 10.8128 31.7172L20.7573 23.975L25.9354 19.9446Z" fill="white"/>
<path d="M25.9354 9.87588L30.1519 7.16142L40.1781 0.707289C39.3249 0.449891 38.4519 0.261852 37.5679 0.14502L29.6413 6.45771L25.9368 9.40742L19.0321 14.015L2.51459 25.0395C2.88409 25.6224 3.28987 26.182 3.72959 26.7149L18.904 15.2089L25.9354 9.87588Z" fill="white"/>
<path d="M25.9354 23.3036L32.8387 18.6967L49.3565 7.67712C48.9876 7.09364 48.582 6.53381 48.1419 6.00098L32.9675 17.5032L25.9354 22.8362L21.7165 25.5534L11.693 32.01C12.5463 32.2669 13.4193 32.4548 14.3033 32.5719L22.2302 26.2592L25.9354 23.3036Z" fill="white"/>
<path d="M50.629 10.1257C50.3613 9.48157 50.0521 8.85521 49.7032 8.25049L32.1837 21.473L25.9354 26.1892L23.4932 27.7167L15.5458 32.6879C15.8628 32.7061 16.1823 32.7161 16.5039 32.7161C17.5052 32.7164 18.5044 32.6269 19.4894 32.4488L24.0984 28.3093L25.9354 26.6598L31.6696 22.8201L50.629 10.1257Z" fill="white"/>
</g>
<defs>
<clipPath id="clip0_413_720">
<rect width="196" height="38" fill="white"/>
</clipPath>
</defs>
</svg>
